<?xml version="1.0" standalone="no"?>
<!DOCTYPE svg PUBLIC "-//W3C//DTD SVG 20010904//EN"
 "http://www.w3.org/TR/2001/REC-SVG-20010904/DTD/svg10.dtd">
<svg version="1.0" xmlns="http://www.w3.org/2000/svg"
 width="674.000000pt" height="674.000000pt" viewBox="0 0 674.000000 674.000000"
 preserveAspectRatio="xMidYMid meet">
<metadata>
Created by potrace 1.14, written by Peter Selinger 2001-2017
</metadata>
<g transform="translate(0.000000,674.000000) scale(0.100000,-0.100000)"
fill="#000000" stroke="none">
<path d="M2098 5042 c-6 -13 -131 -108 -188 -143 -30 -18 -57 -35 -60 -38 -3
-4 -25 -17 -50 -30 -25 -13 -52 -29 -60 -36 -8 -6 -46 -29 -85 -50 -159 -88
-455 -280 -455 -296 0 -6 -4 -8 -9 -5 -5 3 -45 -30 -90 -73 -45 -44 -96 -84
-114 -90 -29 -11 -107 -83 -107 -100 0 -4 -34 -38 -77 -76 -164 -150 -222
-208 -216 -218 3 -6 2 -7 -4 -4 -11 7 -70 -61 -65 -75 1 -4 -4 -8 -10 -8 -7 0
-21 -12 -30 -28 -10 -15 -37 -54 -61 -87 -23 -33 -64 -96 -90 -140 -26 -44
-52 -87 -57 -95 -5 -8 -32 -60 -60 -116 -38 -75 -52 -116 -56 -160 -3 -32 -6
-70 -8 -84 -2 -14 3 -29 9 -35 7 -5 17 -57 24 -115 11 -97 17 -138 21 -150 1
-3 2 -8 1 -12 -2 -16 70 -213 79 -216 6 -2 8 -7 5 -12 -3 -4 17 -41 44 -81 90
-137 190 -221 331 -277 50 -20 174 -50 210 -51 8 0 37 -2 63 -5 27 -2 65 0 85
5 45 11 109 17 267 23 86 4 123 9 130 19 6 8 45 19 90 25 44 6 91 13 105 16
23 5 130 16 195 20 31 2 133 33 150 46 6 4 26 11 45 16 42 10 41 9 63 17 41
16 53 20 67 22 15 2 193 50 390 106 58 17 130 37 160 45 139 38 409 147 430
175 3 3 16 12 29 19 31 16 136 97 175 135 l31 30 3 -25 c2 -14 7 -39 13 -56 5
-17 12 -41 14 -53 7 -36 15 -63 32 -101 85 -195 183 -310 333 -392 51 -28 160
-70 160 -63 0 3 9 1 20 -5 35 -19 207 -30 265 -17 52 12 116 17 243 21 90 3
128 8 140 19 10 8 40 18 67 22 28 3 95 12 150 20 55 8 125 17 156 19 45 3 172
40 249 73 8 3 20 7 25 7 22 3 81 19 90 24 6 4 15 7 20 8 6 1 71 18 145 38 74
20 142 39 150 41 52 13 333 96 370 110 239 84 427 208 546 358 35 44 61 84 58
89 -3 4 0 8 6 8 8 0 9 19 5 63 -3 34 -6 80 -7 103 -1 35 -5 42 -31 54 -17 7
-85 67 -152 132 -126 123 -191 177 -212 178 -6 0 -19 7 -27 16 -9 8 -16 12
-16 8 0 -3 -6 -2 -12 4 -14 11 -96 55 -239 130 -52 26 -103 54 -114 60 -11 7
-69 41 -128 76 l-108 65 -95 -61 c-52 -33 -94 -64 -94 -68 0 -4 -11 -11 -25
-14 -14 -4 -25 -11 -25 -16 0 -6 -7 -10 -15 -10 -9 0 -18 -7 -21 -15 -4 -8
-10 -13 -14 -10 -12 8 -32 -23 -52 -78 -20 -58 -22 -77 -8 -77 6 0 10 6 10 14
0 21 18 30 34 17 7 -6 15 -9 18 -6 2 2 5 -15 7 -39 1 -31 -3 -45 -13 -49 -12
-5 -13 -14 -2 -60 19 -79 70 -153 129 -184 17 -9 16 -12 -12 -39 -20 -19 -27
-34 -22 -43 5 -7 10 -12 12 -11 2 1 13 -2 24 -5 52 -17 75 -28 75 -35 0 -5
-177 -56 -300 -86 -8 -2 -60 -15 -115 -30 -55 -14 -109 -27 -121 -28 -11 -2
-25 -5 -30 -9 -5 -3 -30 -8 -54 -12 -25 -3 -82 -13 -127 -20 -45 -8 -108 -17
-139 -20 -59 -6 -81 -13 -85 -30 -6 -33 -12 -35 -68 -28 -31 5 -153 7 -271 7
l-215 -1 -23 38 -23 38 47 73 c26 40 66 99 90 130 24 31 44 62 44 68 0 6 5 8
10 5 6 -3 10 -2 10 2 0 9 26 44 72 98 15 18 24 35 20 39 -4 4 -2 6 3 4 9 -2
65 47 65 58 0 3 14 17 30 31 17 13 27 30 23 35 -3 6 -1 8 4 5 13 -8 36 17 25
28 -4 5 -2 5 4 2 14 -8 37 17 26 27 -4 4 -2 6 4 4 6 -1 53 36 105 84 113 105
197 175 304 253 44 32 82 61 85 64 5 6 28 20 118 72 28 17 52 36 52 42 0 6 3
7 6 4 7 -6 94 40 105 56 3 5 9 8 13 7 10 -3 520 253 524 263 2 4 10 7 17 7 8
0 18 7 23 16 5 9 11 14 13 13 9 -8 51 30 45 40 -4 6 -2 20 4 31 12 22 4 64
-10 55 -5 -3 -16 2 -25 12 -16 16 -16 17 3 24 21 8 22 28 6 82 -3 10 0 24 6
32 31 38 -62 126 -215 204 -63 31 -115 65 -130 84 -15 18 -32 39 -40 49 -9 11
-23 15 -48 11 -20 -2 -44 0 -54 6 -16 8 -27 3 -56 -22 -60 -52 -78 -66 -157
-115 -41 -26 -76 -50 -78 -54 -2 -5 -10 -8 -18 -8 -8 0 -14 -5 -14 -12 0 -6
-3 -9 -6 -6 -3 3 -46 -18 -95 -48 -49 -30 -94 -54 -99 -54 -6 0 -10 -4 -10
-10 0 -5 -7 -10 -15 -10 -8 0 -15 -5 -15 -10 0 -6 -3 -9 -7 -8 -5 1 -21 -6
-38 -16 -16 -11 -46 -29 -65 -41 -171 -108 -279 -185 -346 -250 -43 -41 -98
-85 -121 -96 -23 -12 -61 -42 -83 -67 -76 -86 -115 -127 -150 -155 -116 -94
-260 -257 -361 -407 -70 -105 -169 -281 -163 -291 3 -5 1 -9 -4 -9 -11 0 -38
-60 -34 -74 4 -12 -25 11 -59 46 -15 15 -30 24 -34 20 -3 -4 -5 -2 -3 5 1 6
-23 36 -55 66 -69 65 -127 111 -127 100 0 -4 -4 -3 -8 3 -7 10 -69 45 -237
134 -131 69 -228 122 -260 142 -16 10 -42 24 -57 30 -16 7 -28 16 -28 20 0 4
-7 8 -15 8 -8 0 -15 4 -15 8 0 5 -11 14 -25 20 -24 11 -38 4 -182 -94 l-157
-105 -23 -61 c-26 -69 -28 -78 -11 -78 6 0 8 3 5 7 -7 6 21 32 35 33 9 0 35
-51 33 -65 0 -5 -6 -20 -13 -32 -31 -55 24 -174 111 -240 l28 -22 -25 -22
c-14 -13 -26 -28 -26 -35 0 -6 27 -22 60 -34 33 -12 60 -26 60 -29 0 -4 -28
-14 -62 -23 -35 -9 -178 -45 -318 -81 -140 -35 -279 -67 -309 -71 -29 -4 -56
-8 -60 -10 -3 -2 -31 -7 -61 -10 -163 -19 -157 -17 -171 -53 -9 -23 -12 -24
-47 -17 -20 5 -142 9 -269 9 l-233 0 -24 36 -25 36 61 94 c33 52 63 96 67 99
18 14 59 78 54 84 -4 3 -2 6 4 6 6 0 32 26 58 58 86 105 293 318 392 403 53
46 111 97 127 113 17 16 32 28 33 25 1 -2 12 5 25 16 13 11 39 31 58 45 19 13
37 27 40 30 9 10 95 68 160 107 106 64 170 99 455 243 338 170 351 179 359
232 7 42 -5 68 -30 68 -8 0 -14 7 -14 15 0 8 7 15 15 15 16 0 22 55 6 64 -11
7 -2 56 10 56 23 0 -49 94 -103 135 -29 22 -136 73 -142 68 -3 -4 -6 -1 -6 5
0 7 -7 12 -15 12 -8 0 -15 5 -15 10 0 6 -6 10 -14 10 -13 0 -51 35 -92 84 -18
21 -28 24 -56 19 -20 -3 -45 0 -56 6 -11 6 -22 7 -24 3z"/>
</g>
</svg>
